<svg version="1.2" xmlns="http://www.w3.org/2000/svg" viewBox="0 0 512 512" width="512" height="512">
	<title>icon-svg</title>
	<style>
		.s0 { fill: #ffffff } 
	</style>
	<rect width="512" height="512" id="Layer 1" style="fill: #000000"/>
	<path id="Layer" fill-rule="evenodd" class="s0" d="m451 94c27.6 0 50 22.4 50 50v223.6c0 27.6-22.4 50-50 50h-390c-27.6 0-50-22.4-50-50v-223.6c0-27.6 22.4-50 50-50zm-318.1 115.3c15.7 0 28.4-12.7 28.4-28.4 0-15.7-12.7-28.4-28.4-28.4-15.6 0-28.3 12.7-28.3 28.4 0 15.7 12.7 28.4 28.3 28.4zm0 19c-15.6 0-28.3 12.7-28.3 28.4 0 15.7 12.7 28.4 28.3 28.4 15.7 0 28.4-12.7 28.4-28.4 0-15.7-12.7-28.4-28.4-28.4zm82.9-19c15.7 0 28.4-12.7 28.4-28.4 0-15.7-12.7-28.4-28.4-28.4-15.6 0-28.3 12.7-28.3 28.4 0 15.7 12.7 28.4 28.3 28.4zm0 19c-15.6 0-28.3 12.7-28.3 28.4 0 15.7 12.7 28.4 28.3 28.4 15.7 0 28.4-12.7 28.4-28.4 0-15.7-12.7-28.4-28.4-28.4zm82.9-19c15.7 0 28.4-12.7 28.4-28.4 0-15.7-12.7-28.4-28.4-28.4-15.7 0-28.4 12.7-28.4 28.4 0 15.7 12.7 28.4 28.4 28.4zm0 19c-15.7 0-28.4 12.7-28.4 28.4 0 15.7 12.7 28.4 28.4 28.4 15.7 0 28.4-12.7 28.4-28.4 0-15.7-12.7-28.4-28.4-28.4zm82.9 56.8c15.6 0 28.3-12.7 28.3-28.4 0-15.7-12.7-28.4-28.3-28.4-15.7 0-28.4 12.7-28.4 28.4 0 15.7 12.7 28.4 28.4 28.4zm0-132.6c-15.7 0-28.4 12.7-28.4 28.4 0 15.7 12.7 28.4 28.4 28.4 15.6 0 28.3-12.7 28.3-28.4 0-15.7-12.7-28.4-28.3-28.4zm-210.2 173.3c-8.3 0-15 6.7-15 15v16.6c0 8.3 6.7 15 15 15h170.7c8.2 0 15-6.7 15-15v-16.6c0-8.3-6.8-15-15-15z"/>
</svg>